<svg version="1.1" viewBox="0.0 0.0 401.95538057742783 388.08923884514434" fill="none" stroke="none" stroke-linecap="square" stroke-miterlimit="10" xmlns:xlink="http://www.w3.org/1999/xlink" xmlns="http://www.w3.org/2000/svg"><clipPath id="p.0"><path d="m0 0l401.95538 0l0 388.08923l-401.95538 0l0 -388.08923z" clip-rule="nonzero"/></clipPath><g clip-path="url(#p.0)"><path fill="#000000" fill-opacity="0.0" d="m0 0l401.95538 0l0 388.08923l-401.95538 0z" fill-rule="evenodd"/><g mask="url(#mask-p.1)"><use xlink:href="#p.1" transform="matrix(1.0 0.0 0.0 -1.0 0.0 591.8320209973754)"/></g><defs><mask id="mask-p.1" maskUnits="userSpaceOnUse" x="122.1026929133858" y="297.9160104986877" width="273.46456692913387" height="281.2125984251968"><linearGradient gradientUnits="userSpaceOnUse" id="gradient-p.1" x1="122.10269291696939" y1="297.9150205596691" x2="122.10238751983746" y2="382.27910042015543"><stop offset="0%" stop-color="#ffffff" stop-opacity="1.0"/><stop offset="100%" stop-color="#ffffff" stop-opacity="0.0"/></linearGradient><rect fill="url(#gradient-p.1)" x="122.1026929133858" y="297.9160104986877" width="273.46456692913387" height="281.2125984251968"/></mask></defs><g id="p.1"><path fill="#ffffff" d="m123.10269 292.91602l67.86615 -279.21262l135.73227 0l67.86615 279.21262z" fill-rule="evenodd"/><path stroke="#000000" stroke-width="2.0" stroke-linejoin="round" stroke-linecap="butt" d="m123.10269 292.91602l67.86615 -279.21262l135.73227 0l67.86615 279.21262z" fill-rule="evenodd"/></g><g mask="url(#mask-p.2)"><use xlink:href="#p.2" transform="matrix(1.0 0.0 0.0 -1.0 0.0 586.0737448019485)"/></g><defs><mask id="mask-p.2" maskUnits="userSpaceOnUse" x="8.961056128810693" y="295.03687240097423" width="163.4596077313354" height="233.12996381330578"><linearGradient gradientUnits="userSpaceOnUse" id="gradient-p.2" x1="8.96105613095272" y1="295.03628067881635" x2="8.960802951853388" y2="364.97545011767176"><stop offset="0%" stop-color="#ffffff" stop-opacity="1.0"/><stop offset="100%" stop-color="#ffffff" stop-opacity="0.0"/></linearGradient><rect fill="url(#gradient-p.2)" x="8.961056128810693" y="295.03687240097423" width="163.4596077313354" height="233.12996381330578"/></mask></defs><g id="p.2"><path fill="#ffffff" d="m113.79965 290.03687l0 0c-71.522934 -14.203766 -116.52213 -76.542404 -100.65613 -139.44171c15.866003 -62.8993 86.62518 -102.6837 158.27715 -88.991455l-13.253204 53.57134l0 0c-42.196922 -6.5685654 -83.14273 15.160805 -91.5773 48.598778c-8.434574 33.43799 18.818611 65.99159 60.95308 72.80774z" fill-rule="evenodd"/><path stroke="#000000" stroke-width="2.0" stroke-linejoin="round" stroke-linecap="butt" d="m113.79965 290.03687l0 0c-71.522934 -14.203766 -116.52213 -76.542404 -100.65613 -139.44171c15.866003 -62.8993 86.62518 -102.6837 158.27715 -88.991455l-13.253204 53.57134l0 0c-42.196922 -6.5685654 -83.14273 15.160805 -91.5773 48.598778c-8.434574 33.43799 18.818611 65.99159 60.95308 72.80774z" fill-rule="evenodd"/></g></g></svg>